PathFileType	4	(X/Y/Z)	path1_11_0-607.trc
DataRate	CameraRate	NumFrames	NumMarkers	Units	OrigDataRate	OrigDataStartFrame	OrigNumFrames
30	30	9	22	m	30	531	607
Frame#	Time	Hip			RHip			RKnee			RAnkle			RBigToe			RSmallToe			RHeel			LHip			LKnee			LAnkle			LBigToe			LSmallToe			LHeel			Neck			Head			Nose			RShoulder			RElbow			RWrist			LShoulder			LElbow			LWrist		
		X1	Y1	Z1	X2	Y2	Z2	X3	Y3	Z3	X4	Y4	Z4	X5	Y5	Z5	X6	Y6	Z6	X7	Y7	Z7	X8	Y8	Z8	X9	Y9	Z9	X10	Y10	Z10	X11	Y11	Z11	X12	Y12	Z12	X13	Y13	Z13	X14	Y14	Z14	X15	Y15	Z15	X16	Y16	Z16	X17	Y17	Z17	X18	Y18	Z18	X19	Y19	Z19	X20	Y20	Z20	X21	Y21	Z21	X22	Y22	Z22
532	17.733333333333334	-2.364264301150702	0.7935871511398902	0.8760573747881824	-2.367935035999061	0.7516569318685383	0.7886963587724757	-2.322074678435654	0.4259613071379691	0.7622879235481748	-2.2840579634788525	0.06635502659236274	0.7730703560810344	-2.4644219295940766	-0.02375549369368285	0.7754891015684112	-2.430448975639805	-0.03355840305581363	0.7243528379005134	-2.239882052187941	-0.0038726548662834873	0.7862483502876778	-2.3547351625423807	0.749032516771406	0.9530808746305939	-2.32513255155556	0.40202546784172677	0.9472821922906912	-2.292381861933874	0.052281687256469825	0.9138654201384191	-2.4567885473858353	-0.027573780892825264	0.9399115126782678	-2.5043998062207407	-0.05466310952493188	0.951234399255564	-2.2875308462627015	-0.0146751092410389	0.8926468490202807	-2.331572803688047	1.439254463896684	0.891790021880763	-2.4587445781888677	1.6767671218301226	0.8769080656845087	-2.447444514857596	1.495202674184042	0.965314658214789	-2.2950582230917536	1.3366455964112869	0.7127180867243585	-2.2527592087257804	1.055624806813399	0.6762143109668157	-2.2680363105375667	0.8149288465835065	0.6538630235620332	-2.323570024207646	1.3173347417067918	1.0745750398601217	-2.3110435563048273	1.0489965854162038	1.093156238697705	-2.329989725604129	0.8059472287258742	1.0946524371122144
533	17.766666666666666	-2.3661054225425433	0.7933014367016815	0.8743341819057742	-2.36962532839776	0.7521312310113536	0.786935710854442	-2.32269236183164	0.42556105858435317	0.7618008471907435	-2.2840661008705734	0.06568773742374408	0.77303171824685	-2.464261993973684	-0.023741025668822663	0.7754453685028546	-2.430880828984348	-0.033723312480866054	0.7255429268604976	-2.239845821785174	-0.0039471824171895	0.7859771286658962	-2.357134884593561	0.749662502819369	0.9515820606455716	-2.3246790302966134	0.40170802344316103	0.945552108332006	-2.2921510243768646	0.05271528229770022	0.9142038163588676	-2.455907070476832	-0.026620202523687835	0.9411915663539855	-2.502583035601049	-0.05416265124663014	0.9534585453976779	-2.2858698849655013	-0.014420543015525986	0.8938741203800775	-2.334030117082879	1.4388379565714513	0.888945585831929	-2.44900897925075	1.6726676378333287	0.8703381120533401	-2.4485459586886296	1.4959288889908113	0.9706730659137359	-2.2969772867898093	1.335891484905611	0.7104472334145286	-2.2539568620249475	1.0553442937632622	0.6741569760882266	-2.268483657203409	0.8149165547393179	0.6533805777204728	-2.326637432229235	1.3172015458264925	1.0722577366077388	-2.3121477965161903	1.0495835054757927	1.0899285277276114	-2.3306094038827943	0.8063416941188035	1.0915099919794067
534	17.8	-2.3677420500205044	0.7931445956508019	0.872635697631789	-2.370964174047347	0.7531073864875406	0.7852598134491198	-2.3231387885830324	0.42526086989130657	0.7615478734123081	-2.284171791621671	0.06501739884042258	0.7729446883149502	-2.4641737446669336	-0.023639195580861163	0.7752934950835524	-2.4314606267828878	-0.03382398368751167	0.7263735272716203	-2.2398425479845985	-0.004013259337355459	0.7856280735534179	-2.359156207673224	0.7506032104198732	0.9501443733453906	-2.324948941018978	0.40167280997858323	0.943951316123177	-2.291772634804108	0.052916473585403266	0.9145781531329676	-2.454858372835267	-0.025240864991770084	0.9422094890780326	-2.5012266259670413	-0.053767383933379695	0.9550938690660271	-2.2809179244070554	-0.014208892217100156	0.8961321321453262	-2.3362045725893585	1.4385097958671011	0.8863514458731344	-2.4329001753335895	1.6663310326879506	0.8614758879333059	-2.450108792669186	1.496438124200362	0.9705595987648039	-2.2987470120637155	1.335479698351488	0.7084759635080156	-2.2550899015629366	1.0551861746079896	0.6718704503543667	-2.269232585914276	0.8146617557680109	0.6526964969625875	-2.3291294113227106	1.317275887100745	1.0700200835415368	-2.3130117831860244	1.0501269265418411	1.0870085248460157	-2.3313428859642062	0.8064361632730376	1.088719183618541
535	17.833333333333332	-2.369068178802017	0.7930796664835152	0.8711297789271006	-2.3718869394023026	0.7542817603460279	0.7839207690324461	-2.32344483179038	0.42494475340459087	0.7614743139803073	-2.2843694109995494	0.0643121121778443	0.7728363919249251	-2.4641888747865077	-0.023564068948774667	0.7750750661035101	-2.4320704293595004	-0.03401007277606819	0.7268813369750118	-2.239851560664304	-0.004126157240168185	0.785283737678976	-2.3607385741936735	0.7516930166164311	0.9489037490013787	-2.325601605666463	0.4017921105804386	0.9426009323015029	-2.2912329183946576	0.052879929141421304	0.9149657555615016	-2.4538201546193146	-0.02369405077247324	0.9428029666732535	-2.5005175591110578	-0.053473268271202676	0.9560902933647056	-2.2732330875805853	-0.01407858046866723	0.8991584127344439	-2.33809750828252	1.438268792195152	0.8840544107575344	-2.417450726468198	1.661387344980817	0.8483211576570826	-2.4516687555186616	1.4967580709950132	0.9676617235337015	-2.3004320186720553	1.335388925692206	0.7068760912497513	-2.2561914566629726	1.0550408564708473	0.669648430925147	-2.270259121487774	0.8141800506307938	0.6518639343901254	-2.331116329109202	1.317585888831335	1.067879421557994	-2.3135910431840063	1.0507082781075572	1.0845348233654484	-2.332093702641778	0.8063395352097704	1.0863586246980572
536	17.866666666666667	-2.37002536228964	0.7930607530161069	0.8699322858339572	-2.3724040819308083	0.7553723611866273	0.7829834747475142	-2.32364198293377	0.424516056597537	0.7614817033723974	-2.2846351327799144	0.06357039717716341	0.7727038292740516	-2.464282915226952	-0.023573688873222122	0.7747237770106161	-2.4326079282914335	-0.03434043417713926	0.727136456754842	-2.2399311382496783	-0.004360322595779132	0.7850259833803148	-2.3618822773191015	0.7527432835532578	0.9478720991204788	-2.3262510299629886	0.40190555855416715	0.9415410575100732	-2.290507010856911	0.052703726140035614	0.9152861811031603	-2.452832386582138	-0.02222356009658617	0.942857478696868	-2.5004210089250263	-0.05322405514487255	0.9564880835135557	-2.264330933504455	-0.014018134561171076	0.9024276381488707	-2.339727474258301	1.4380949124944586	0.8820283656485196	-2.407571782692265	1.6590694934309025	0.8340262312757236	-2.453001307595874	1.496937508848856	0.9639811161343018	-2.3020450523683182	1.3354898348145627	0.7055816282922966	-2.2573100173119443	1.0548349424966545	0.6677303425172703	-2.27147554510715	0.8135396674985849	0.650986981638109	-2.3327087191642617	1.3180662270595045	1.065911195518669	-2.3139539428963465	1.0513110821160898	1.0825762779935753	-2.332819800121981	0.8061393320292497	1.08443511990674
537	17.9	-2.3706235917833394	0.7930309426000968	0.8690352126102061	-2.3726327872346515	0.756149226871533	0.7823315384547086	-2.3237448626783737	0.4239593236362856	0.7614770754134138	-2.2848923907507888	0.06284828574022645	0.7725499496860392	-2.464389172886229	-0.023632150249223056	0.7742199182750412	-2.433018602121203	-0.03476184307733268	0.7272173487621658	-2.2400903310530818	-0.004747675002299793	0.784900925288717	-2.3626245257317966	0.7535415792220113	0.946954451043848	-2.3266379427122628	0.40189395577725817	0.9407169946940432	-2.289652082112475	0.052506449779547305	0.915434312702915	-2.451832337851307	-0.020967247838259807	0.9423571489146665	-2.5007260220488905	-0.05300692986255833	0.9563251794481715	-2.256234849095775	-0.013982906927822723	0.9052127495523594	-2.3411058954502235	1.4379879832569928	0.8802078577423492	-2.4045921072059113	1.6581791706722062	0.8267567754757301	-2.4541378584224254	1.4970338300517314	0.9606272924345356	-2.3035633517058267	1.3356059026345017	0.7044010435514851	-2.2585022498199385	1.0545186040971088	0.6662154307590304	-2.2727873973206387	0.8128237382947471	0.6501598636201894	-2.3340133500987448	1.3186020257037818	1.064220132015249	-2.3142313011340234	1.0518320332871378	1.0811053481884714	-2.333523370472922	0.8058498648326877	1.0828724606491784
538	17.933333333333334	-2.370928709231661	0.792945714635817	0.8682944662903942	-2.372735387938408	0.7564642058467823	0.7817720272592835	-2.3237613145748988	0.42335602594841776	0.7614045297091574	-2.2850489751542726	0.06219514013032324	0.7724262049524604	-2.4644596089567647	-0.023753194056030737	0.7736996024243942	-2.4333092740221907	-0.035256685614452964	0.7272320024422627	-2.2402599242571224	-0.005262948593191601	0.7849016882495113	-2.363008273030224	0.7539109939490192	0.9460347971920365	-2.3266338286710155	0.4017167701251954	0.9399835467783726	-2.2887854433713644	0.05238437444285721	0.9153018737111792	-2.4506935827800116	-0.019998322584874145	0.9413711125790516	-2.5011358731407207	-0.0528857839156803	0.9556817177370582	-2.250287013888417	-0.01394355952635879	0.9070102306453992	-2.3422533513324604	1.4379752154012488	0.8785388864750271	-2.408510986234234	1.657907253290215	0.8310791733374454	-2.455216508314434	1.4971168795210337	0.9578885756716883	-2.30493729953399	1.3356096401124238	0.703121946837999	-2.2598209228704156	1.054092293604415	0.6650213638622986	-2.2741595022649213	0.8121257783744008	0.6493981253478034	-2.3351063624026436	1.319075945128288	1.062880931023091	-2.3145304583247586	1.052154450273935	1.0800142744678798	-2.334242350152867	0.8054658619383043	1.0815512684833282
539	17.966666666666665	-2.371067877523193	0.7928026718005923	0.8675156828326795	-2.3728027587675253	0.7563243237217439	0.7811805216650826	-2.323726292013548	0.4227999859876337	0.7612459945977097	-2.285040093444624	0.06161208985552178	0.7724152074772379	-2.46444104229399	-0.024052486733409047	0.7733908214553553	-2.4334664798890113	-0.03590436290248889	0.7273334750849825	-2.240368924901801	-0.005880312174545638	0.7849941207142012	-2.363071145503999	0.7538046118891574	0.9450238440033033	-2.32621339175788	0.401347955166298	0.9391487723814553	-2.2880361927802064	0.05235927660610665	0.914816175421545	-2.4493435456883366	-0.01939712215265434	0.9400041628950843	-2.5014206992089103	-0.05297437021300704	0.9547033975166264	-2.2466938433177592	-0.013936062813242327	0.9077806865509488	-2.3432390976265385	1.4380691191993145	0.8769883001900374	-2.4199387273054827	1.6596248075669724	0.8416228109861742	-2.4563109995687307	1.4972604090547286	0.9555713524671983	-2.3060757024817042	1.3355137641209076	0.7016342997722967	-2.2612876753070688	1.0536122577473461	0.6639701853795704	-2.275617360856059	0.8115335757545571	0.6486548529305858	-2.3360644847864536	1.3194054692999124	1.0618612284399425	-2.3148887799752105	1.0522238358532479	1.0791449034662117	-2.33503203896181	0.8050312897349354	1.0803586575927553
540	18.0	-2.371203647470672	0.7926580037863593	0.8665977460178905	-2.372860479371299	0.7558956554605057	0.7805726422535855	-2.3237152333002737	0.4223245735542835	0.7610262073935318	-2.2848486321740156	0.061090723074615313	0.7725730879810636	-2.4642535903212694	-0.024614722899863644	0.773460852314746	-2.4334103027830345	-0.036763612342860665	0.7276456209471613	-2.240394258507619	-0.006599518293748278	0.7851698072411313	-2.3628967031519483	0.7533455543816522	0.9439084005326596	-2.3254916848836222	0.40076516795265715	0.9381053599767063	-2.287550283336555	0.05236257847643209	0.9140353357183967	-2.447882040195112	-0.019236695814572095	0.9384411329087589	-2.5014960172505885	-0.0533372679220656	0.9535972581357566	-2.2450339045078587	-0.014047946574985206	0.9078114764796088	-2.3441569502532227	1.4382458243607148	0.875534522794821	-2.4386552002975987	1.665210813854556	0.8495351763293106	-2.4573774155520285	1.4975036433148667	0.9534881926289374	-2.3069088762453944	1.3354544450034582	0.6999902741091762	-2.262874374652645	1.0531709982043802	0.6629461445664709	-2.277184155500428	0.8111072075103256	0.6478978368206527	-2.3369887084004133	1.3195781801910507	1.0610240249961211	-2.3153009053499365	1.0520835327914069	1.0783676488304235	-2.3359511080473507	0.8046486632656844	1.079250088823928
